<svg width="46" height="58" viewBox="0 0 46 58" fill="none" xmlns="http://www.w3.org/2000/svg">
<path d="M5.5 3C2.7385 3 0.5 5.25 0.5 8V28V38V53C0.5 55.75 2.7385 58 5.5 58H40.5C43.2625 58 45.5 55.75 45.5 53V38V28V18L30.5 3H5.5Z" fill="#C0392B"/>
<path d="M5.5 0.5C2.7385 0.5 0.5 2.75 0.5 5.5V25.5V35.5V50.5C0.5 53.25 2.7385 55.5 5.5 55.5H40.5C43.2625 55.5 45.5 53.25 45.5 50.5V35.5V25.5V15.5L30.5 0.5H5.5Z" fill="#E74C3C"/>
<path d="M45.5 15.5L30.5 0.5V10.5C30.5 13.25 32.7375 15.5 35.5 15.5H45.5Z" fill="#C0392B"/>
<path d="M40.78 25.5H40.055C39.83 25.75 38.5525 27.5 38 28C37.85 28.25 37.625 28.4999 37.4975 28.4999C35.64 30.7499 31.69 34.5001 29.32 36.5001C29.01 36.7501 28.71 36.9999 28.655 36.9999C28.49 37.2499 26.91 38.2498 26.2 38.7498C23.9375 40.2498 21.2825 41.4999 19.22 41.9999C15.1497 42.9999 11.974 42.7499 7.85097 40.7499C6.60497 40.2499 4.82972 39.2499 3.85647 38.4999C2.90147 37.7499 3.00222 37.7501 3.00372 39.0001V40.2501L3.64822 40.5C4.47497 41 6.25947 41.9998 7.42297 42.4998C8.30947 42.9998 8.58572 43.2499 8.08972 43.2499C7.63272 42.9999 5.03922 42.9999 4.04272 43.2499H3.04272C3.01972 43.2499 3.00097 43.75 3.00097 44.25V45.2501H3.33422C4.76822 44.7501 7.84597 44.7498 9.27872 44.9998C10.9657 45.2498 12.1527 45.4998 13.5785 46.2498C16.2987 47.4998 18.555 49.9998 19.5375 52.4998L19.7375 53H20.8375H21.9375L21.8775 52.7501C21.525 51.2501 20.535 49.4999 19.31 48.2499C18.505 47.2499 17.0832 46.2499 16.523 45.7499H16.334C16.243 45.4999 15.2927 44.9998 14.8867 44.9998C14.6557 44.7498 14.4675 44.7499 14.4675 44.7499C14.4675 44.4999 14.6425 44.4999 14.8562 44.7499C15.39 44.7499 17.5395 44.5 18.5125 44.25C21.2075 43.75 23.7575 42.7498 26.335 41.2498C27.26 40.7498 29.36 38.9999 30.2 38.4999C30.825 37.7499 31.025 37.75 30.77 38C30.68 38.25 30.5075 38.4998 30.3825 38.7498C30.26 38.9998 30.045 39.2499 29.9075 39.4999C27.9625 42.4999 26.715 46.25 26.3775 50.5C26.33 51.25 26.29 51.9999 26.29 52.2499V53H32.12H37.95L37.76 52.7501C36.71 51.2501 35.4075 47.9999 34.97 45.7499C34.61 43.9999 34.5025 41.2499 34.7275 39.7499C35.3825 35.7499 37.615 32.2498 41.45 29.9998C41.845 29.7498 42.355 29.5 42.5825 29.25L43 29.0001V28.2499C43 27.7499 42.97 27.2499 42.9325 27.2499C42.0225 27.7499 39.9975 28.9999 39.0675 29.4999C38.57 29.9999 38.54 29.9999 39.0075 29.4999C39.6775 28.7499 40.8325 27.4999 42.06 25.9999L42.6325 25.5H41.38H40.78Z" fill="#ECF0F1"/>
</svg>
